<svg width="128" height="128" viewBox="0 0 33.867 33.867" xmlns="http://www.w3.org/2000/svg"><path d="M9.067 27.128V1.52H27.78l5.992 5.992v19.782z" fill="#fff" stroke="#000" stroke-width=".23018695"/><path d="M12.547 6.967H28.47v.638H12.547z"/><g stroke-width=".114"><path d="M12.547 8.844H28.47v.637H12.547zM12.547 10.711H28.47v.638H12.547zM12.547 12.579H28.47v.637H12.547zM12.547 14.446H28.47v.638H12.547zM12.547 16.314H28.47v.638H12.547zM12.547 18.181H28.47v.638H12.547z"/></g><g stroke-width=".114"><path d="M12.547 21.925H28.47v.638H12.547zM12.547 23.793H28.47v.637H12.547zM12.547 20.05H28.47v.637H12.547z"/></g><g><path d="M5.587 29.832V4.223H24.3l5.992 5.992v19.781z" fill="#fff" stroke="#000" stroke-width=".23018695"/><path d="M9.066 9.671H24.99v.638H9.066z"/><g stroke-width=".114"><path d="M9.066 11.547H24.99v.638H9.066zM9.066 13.415H24.99v.638H9.066zM9.066 15.283H24.99v.637H9.066zM9.066 17.15H24.99v.638H9.066zM9.066 19.018H24.99v.637H9.066zM9.066 20.885H24.99v.638H9.066z"/></g><g stroke-width=".114"><path d="M9.066 24.629H24.99v.638H9.066zM9.066 26.497H24.99v.637H9.066zM9.066 22.753H24.99v.637H9.066z"/></g></g><g><path d="M.284 33.664V8.055H19l5.992 5.992v19.781z" fill="#fff" stroke="#000" stroke-width=".23018695"/><path d="M3.764 13.503h15.924v.638H3.764z"/><g stroke-width=".114"><path d="M3.764 15.38h15.924v.637H3.764zM3.764 17.247h15.924v.638H3.764zM3.764 19.114h15.924v.638H3.764zM3.764 20.982h15.924v.638H3.764zM3.764 22.85h15.924v.637H3.764zM3.764 24.717h15.924v.638H3.764z"/></g><g stroke-width=".114"><path d="M3.764 28.461h15.924v.638H3.764zM3.764 30.329h15.924v.637H3.764zM3.764 26.585h15.924v.637H3.764z"/></g></g></svg>